<?xml version="1.0" encoding="iso-8859-1"?>
<!-- Uploaded to: SVG Repo, www.svgrepo.com, Generator: SVG Repo Mixer Tools -->
<!DOCTYPE svg PUBLIC "-//W3C//DTD SVG 1.1//EN" "http://www.w3.org/Graphics/SVG/1.1/DTD/svg11.dtd">
<svg fill="#000000" version="1.1" id="Capa_1" xmlns="http://www.w3.org/2000/svg" xmlns:xlink="http://www.w3.org/1999/xlink" 
	 width="800px" height="800px" viewBox="0 0 44.607 44.607"
	 xml:space="preserve">
<g>
	<path d="M42.247,32.221L25.283,23.85v-0.022l0,0v-1.162c3.021-1.212,6.861-4.592,6.861-8.959c0-5.242-4.096-9.347-9.323-9.347
		c-2.749,0-5.205,1.123-6.919,3.014c-0.759,0.836-1.02,2.011-0.686,3.09c0.334,1.078,1.211,1.902,2.31,2.163l0.027,0.006
		c1.063,0.252,2.178-0.099,2.904-0.913c0.648-0.725,1.553-1.149,2.55-1.149c1.878,0,3.058,1.279,3.058,3.338
		c0,1.951-1.394,3.188-3.771,3.31l0.033,0.018c-2.002,0.127-2.989,1.676-2.989,3.385v3.246L2.374,32.221
		c-1.778,0.875-2.711,2.83-2.262,4.754c0.448,1.933,2.141,3.274,4.124,3.274h36.119c1.983,0,3.69-1.344,4.14-3.274
		C44.942,35.05,44.025,33.096,42.247,32.221z M11.632,34.304l10.662-5.255l10.664,5.255H11.632z"/>
</g>
</svg>