<?xml version="1.0" encoding="UTF-8" standalone="no"?>
<svg
   xmlns:dc="http://purl.org/dc/elements/1.1/"
   xmlns:cc="http://creativecommons.org/ns#"
   xmlns:rdf="http://www.w3.org/1999/02/22-rdf-syntax-ns#"
   xmlns:svg="http://www.w3.org/2000/svg"
   xmlns="http://www.w3.org/2000/svg"
   xmlns:sodipodi="http://sodipodi.sourceforge.net/DTD/sodipodi-0.dtd"
   xmlns:inkscape="http://www.inkscape.org/namespaces/inkscape"
   viewBox="0 0 17000 13375"
   version="1.1"
   xml:space="preserve"
   style="clip-rule:evenodd;fill-rule:evenodd;stroke-linejoin:round;stroke-miterlimit:1.41420996"
   id="svg11"
   sodipodi:docname="bayer-04-leverkusen-logo.svg"
   width="4096"
   height="4096"
   inkscape:export-filename="C:\Users\alex\sites\bayer-04-Leverkusen-logo-0.png"
   inkscape:export-xdpi="96"
   inkscape:export-ydpi="96"
   inkscape:version="0.92.1 r15371"><metadata
     id="metadata17"><rdf:RDF><cc:Work
         rdf:about=""><dc:format>image/svg+xml</dc:format><dc:type
           rdf:resource="http://purl.org/dc/dcmitype/StillImage" /><dc:title></dc:title></cc:Work></rdf:RDF></metadata><defs
     id="defs15" /><sodipodi:namedview
     pagecolor="#ffffff"
     bordercolor="#666666"
     borderopacity="1"
     objecttolerance="10"
     gridtolerance="10"
     guidetolerance="10"
     inkscape:pageopacity="0"
     inkscape:pageshadow="2"
     inkscape:window-width="1600"
     inkscape:window-height="838"
     id="namedview13"
     showgrid="false"
     height="4096"
     units="px"
     inkscape:zoom="0.08"
     inkscape:cx="2543.2337"
     inkscape:cy="557.55042"
     inkscape:window-x="-8"
     inkscape:window-y="-8"
     inkscape:window-maximized="1"
     inkscape:current-layer="svg11" /><g
     id="Layer_x0020_1"
     transform="matrix(0.75732173,0,0,0.75732173,2058.2214,1626.6161)"
     inkscape:export-filename="C:\Users\alex\sites\bayer-04-Leverkusen-logo-4.png"
     inkscape:export-xdpi="12.372835"
     inkscape:export-ydpi="12.372835"><path
       d="m 4873,724 c 90,-94 291,-289 661,-277 232,-107 497,-65 596,-7 0,0 167,-4 275,48 660,-221 1367,-341 2100,-341 733,0 1440,120 2100,341 108,-52 275,-48 275,-48 99,-58 364,-100 596,7 370,-12 571,183 661,277 51,-143 140,-263 350,-335 75,-388 579,-563 1291,-205 317,-288 783,19 936,435 234,-59 606,159 581,858 237,12 330,262 262,667 141,-30 835,-159 1331,472 237,301 99,686 -153,874 -17,47 -122,467 -441,639 -19,213 350,669 489,969 391,843 196,2275 -1251,2520 64,60 211,262 259,429 62,217 15,426 -94,605 -119,197 -566,476 -677,616 207,123 442,373 337,846 l -411,1849 c -67,301 -268,556 -596,622 -166,34 -340,-2 -444,-29 -719,-190 -1240,-43 -2037,216 -416,135 -868,284 -1405,400 -550,119 -1186,204 -1958,204 -772,0 -1409,-85 -1958,-204 -537,-116 -990,-265 -1405,-400 -797,-258 -1318,-406 -2037,-216 -105,28 -278,63 -444,29 -328,-66 -528,-321 -596,-622 l -411,-1849 c -105,-473 130,-724 337,-846 -111,-140 -558,-419 -677,-616 -109,-179 -156,-389 -94,-605 48,-168 195,-369 259,-429 C 33,7373 -161,5941 229,5098 368,4798 737,4343 718,4129 400,3958 294,3537 277,3490 25,3302 -113,2917 124,2616 c 497,-631 1190,-502 1331,-472 -67,-405 25,-655 262,-667 -25,-699 347,-917 581,-858 153,-416 618,-723 936,-435 711,-358 1216,-183 1291,205 209,72 299,192 350,335 z"
       style="fill:#fefefe;fill-rule:nonzero"
       id="path2"
       inkscape:connector-curvature="0" /><path
       d="m 6672,2936 -48,-29 12,-55 c 32,-146 12,-276 -212,-283 l -56,-2 -170,-535 47,-33 c 154,-109 119,-247 -91,-322 l -52,-19 v -55 c 0,-89 54,-138 92,-173 9,-8 19,-17 29,-27 9,-9 19,-18 28,-28 18,-20 37,-44 54,-76 l 14,-25 27,-11 c 669,-263 1397,-407 2159,-407 762,0 1490,144 2159,407 l 27,11 14,25 c 17,32 35,56 54,76 10,10 19,20 28,28 10,10 20,18 29,27 38,35 92,84 92,173 v 55 l -52,19 c -209,75 -245,213 -91,322 l 47,33 -170,535 -56,2 c -225,7 -245,137 -212,283 l 12,55 -48,29 c -67,41 -127,203 -87,321 l 58,176 -167,-80 c -495,-238 -1050,-371 -1636,-371 -586,0 -1141,133 -1636,371 l -167,80 58,-176 c 39,-118 -20,-280 -87,-321 z m 20,9542 c -512,-111 -943,-254 -1339,-382 -775,-251 -1454,-461 -2346,-250 -182,45 -245,44 -286,-141 l -370,-1665 c -34,-155 12,-187 161,-221 1102,-236 2010,-74 2924,159 479,122 954,262 1452,371 507,111 1036,191 1615,191 579,0 1109,-80 1615,-191 498,-109 973,-249 1452,-371 914,-233 1822,-396 2924,-159 150,33 195,66 161,221 l -370,1665 c -41,185 -104,186 -287,141 -892,-210 -1570,0 -2346,251 -396,128 -827,271 -1339,382 -508,110 -1097,188 -1812,188 -715,0 -1303,-78 -1812,-188 z"
       style="fill:#ffe11e;fill-rule:nonzero"
       id="path4"
       inkscape:connector-curvature="0" /><path
       d="m 3848,619 c -32,75 -5,141 51,182 25,18 54,32 79,42 24,10 51,18 76,27 42,14 109,23 169,42 57,18 73,36 76,48 1,3 0,6 0,10 -1,11 -2,24 -4,37 -5,30 -13,63 -20,87 l -24,87 89,12 c 71,9 111,18 119,21 16,6 30,15 45,28 8,7 15,14 23,21 8,8 16,17 24,25 16,17 36,39 60,56 25,19 55,35 94,41 32,5 166,15 204,20 54,6 113,19 174,36 l 67,18 27,-64 c 83,-200 181,-281 249,-310 34,-15 62,-17 79,-15 9,1 14,3 15,4 -2,-3 -4,-8 -10,-11 l 133,3 c 12,-18 84,-51 186,-54 45,-1 84,5 109,15 12,5 18,9 19,11 281,-18 415,123 356,244 -17,36 -36,62 -55,84 -10,11 -20,21 -29,30 -10,10 -21,19 -30,28 -11,10 -22,20 -31,30 -10,11 -21,23 -31,37 -21,31 -34,66 -34,110 v 55 l 52,19 c 211,76 248,215 83,328 -60,41 -113,81 -161,116 -47,34 -86,61 -123,79 -65,33 -119,40 -196,1 l -47,-24 -40,35 c -191,166 -283,358 -328,562 l -36,162 148,-74 c 34,-17 67,-33 99,-47 1167,-511 1112,-98 1082,39 l -12,55 48,29 c 51,31 104,139 99,251 -4,102 -50,169 -161,169 h -72 l -7,71 c -11,113 -223,200 -417,66 l -34,-24 -39,15 c -107,42 -234,80 -333,79 h -34 l -24,25 c -81,85 -163,209 -245,344 -82,135 -169,288 -263,436 -190,301 -391,557 -616,636 l -31,11 -14,30 c -74,157 -178,277 -277,352 -219,167 -661,607 -661,1047 v 79 h 79 c 608,0 669,373 669,591 0,270 -194,455 -417,600 -112,73 -225,132 -309,182 -43,26 -84,52 -115,80 -28,25 -65,66 -65,122 0,246 743,712 900,712 230,0 341,135 376,180 160,204 133,581 -174,581 h -29 l -31,28 c -4,4 -11,9 -20,15 -19,13 -49,29 -91,42 -84,25 -224,37 -431,-40 l -37,-14 -33,22 c -101,66 -352,47 -415,-59 l -35,-59 -63,27 c -103,44 -244,60 -340,64 -27,0 -40,-7 -62,-45 -31,-53 -59,-132 -109,-231 -107,-214 -305,-512 -793,-863 -192,-138 -201,-198 -187,-245 10,-35 38,-79 90,-143 52,-64 121,-139 200,-230 200,-231 219,-462 159,-660 l -7,-22 -17,-15 c -35,-30 -67,-59 -94,-85 -18,-18 -35,-36 -50,-55 l -29,-35 -44,8 c -266,46 -517,10 -629,-25 -699,-222 -892,-983 -605,-1601 52,-113 121,-230 186,-335 67,-108 131,-204 173,-272 121,-199 202,-422 190,-750 -4,-107 -19,-216 -49,-321 l -16,-57 h -60 c -200,0 -262,-93 -310,-219 -28,-73 -49,-150 -78,-218 -33,-74 -81,-150 -168,-196 -17,-9 -21,-19 -22,-22 -1,-3 -1,-6 2,-10 75,-112 332,-225 435,-225 209,0 354,16 488,151 128,128 159,268 159,396 0,115 -47,216 -136,276 l -44,30 11,52 c 67,317 116,820 -177,1263 -222,336 -550,833 -382,1292 110,302 419,512 862,470 l 75,-7 -4,-75 c -13,-263 111,-555 344,-824 230,-265 457,-778 492,-1160 l 8,-88 -89,3 c -105,3 -226,-60 -287,-124 -7,-8 -13,-14 -17,-21 6,0 13,0 22,0 89,0 146,-59 179,-118 33,-59 51,-132 60,-199 9,-69 10,-137 6,-189 -2,-26 -6,-52 -13,-73 -19,-61 -64,-76 -91,-76 -29,0 -54,9 -71,18 -14,7 -29,17 -44,27 -9,6 -18,13 -28,18 -7,4 -10,4 -11,4 -89,8 -156,-69 -190,-195 -12,-43 -17,-84 -17,-116 53,16 112,22 163,12 108,-21 162,-116 104,-240 -11,-23 -17,-39 -21,-52 -4,-13 -6,-23 -8,-33 -13,-61 -40,-98 -145,-45 -7,4 -31,14 -87,5 -24,-4 -49,-22 -71,-71 -22,-48 -34,-113 -36,-180 -2,-48 2,-91 7,-125 134,72 340,72 322,-171 -2,-32 -4,-52 -4,-71 0,-16 1,-31 3,-51 6,-50 -14,-93 -86,-97 -12,-1 -29,1 -49,3 -13,2 -27,3 -41,4 -13,1 -22,0 -28,-1 -22,-5 -91,-70 -105,-118 -24,-82 -5,-197 31,-284 5,-13 10,-24 15,-34 44,46 102,73 154,81 67,11 194,-11 189,-144 -2,-53 5,-92 12,-116 6,-20 65,-136 65,-136 l -113,-13 c -10,-1 -71,-11 -82,-19 -32,-24 -49,-103 -43,-171 7,-79 66,-186 127,-249 17,70 71,125 121,153 48,27 166,64 222,-41 18,-34 38,-58 53,-73 7,-7 13,-13 18,-16 2,-136 -58,-178 -74,-221 -20,-54 30,-132 162,-196 42,-20 81,-33 113,-39 -7,34 -9,66 -2,95 13,58 54,91 102,102 38,9 81,3 116,-2 34,-5 74,-14 115,-21 29,-5 57,-6 78,-6 20,0 182,16 182,16 0,0 -81,-147 -87,-168 -3,-11 -5,-19 -5,-25 2,-2 2,2 8,-2 15,-9 35,-18 56,-27 48,-19 106,-36 160,-45 26,-5 48,-7 65,-7 z m 10788,3738 c -5,6 -10,13 -16,20 -61,64 -182,127 -287,124 l -89,-3 8,88 c 35,382 262,895 492,1160 233,269 357,561 344,824 l -4,75 75,7 c 443,42 752,-169 862,-470 168,-459 -159,-956 -382,-1292 -293,-443 -244,-946 -177,-1263 l 11,-52 -44,-30 c -88,-60 -135,-160 -135,-276 0,-128 32,-268 159,-396 135,-135 279,-151 488,-151 103,0 360,113 435,225 2,3 3,6 2,10 -1,3 -5,12 -22,22 -87,46 -135,122 -168,196 -30,68 -51,145 -78,218 -48,126 -109,219 -310,219 h -60 l -16,57 c -30,105 -45,214 -49,321 -12,328 69,551 190,750 41,68 105,164 173,272 65,105 134,222 186,335 287,619 94,1380 -605,1601 -112,35 -363,71 -629,25 l -44,-8 -29,35 c -16,19 -32,37 -50,55 -27,27 -59,55 -94,85 l -17,15 -7,22 c -60,198 -41,429 159,660 79,91 148,166 200,230 52,64 80,108 90,143 14,47 4,108 -187,245 -488,351 -686,649 -793,863 -50,99 -78,177 -109,231 -23,38 -36,45 -62,45 -96,-4 -237,-20 -340,-64 l -63,-27 -35,59 c -63,105 -313,125 -415,59 l -33,-22 -37,14 c -207,77 -347,65 -431,40 -43,-13 -73,-29 -91,-42 -9,-6 -15,-11 -20,-15 -368,-28 -395,-405 -235,-609 35,-45 146,-180 376,-180 157,0 900,-466 900,-712 0,-56 -38,-98 -65,-122 -31,-28 -72,-54 -115,-80 -84,-51 -197,-109 -309,-182 -223,-145 -417,-330 -417,-600 0,-217 61,-591 669,-591 h 79 v -79 c 0,-440 -442,-880 -661,-1047 -98,-75 -203,-194 -277,-352 l -14,-30 -31,-11 c -225,-79 -427,-335 -616,-636 -94,-149 -181,-301 -263,-436 -82,-135 -164,-259 -245,-344 l -24,-25 h -34 c -99,1 -226,-37 -333,-79 l -39,-15 -34,24 c -194,134 -406,47 -417,-66 l -7,-71 h -72 c -111,0 -157,-67 -161,-169 -4,-113 48,-220 99,-251 l 48,-29 -12,-55 c -30,-136 -85,-549 1082,-39 32,14 65,30 99,47 l 148,74 -36,-162 c -45,-204 -136,-395 -328,-562 l -40,-35 -47,24 c -77,39 -130,32 -196,-1 -36,-18 -75,-45 -123,-79 -48,-35 -101,-75 -161,-116 -165,-112 -128,-252 83,-328 l 52,-19 v -55 c 0,-44 -13,-80 -34,-110 -10,-14 -21,-27 -31,-37 -10,-10 -20,-19 -31,-30 -10,-9 -20,-18 -30,-28 -9,-9 -19,-19 -29,-30 -19,-22 -38,-48 -55,-84 -59,-121 75,-262 246,-185 l 111,-63 c 2,-2 7,-3 19,-8 25,-10 63,-16 109,-15 102,2 174,36 186,54 l 133,-3 c -5,3 -8,7 -10,11 2,-1 6,-3 15,-4 17,-2 45,0 79,15 68,29 165,110 249,310 l 27,64 67,-18 c 61,-17 120,-30 174,-36 39,-4 172,-15 204,-20 38,-6 69,-23 94,-41 23,-18 44,-39 60,-56 8,-8 16,-17 24,-25 7,-7 15,-14 23,-21 15,-13 29,-22 45,-28 7,-3 47,-12 119,-21 l 89,-12 -24,-87 c -6,-24 -15,-56 -20,-87 -2,-13 -4,-26 -4,-37 0,-4 -1,-7 0,-10 4,-12 19,-30 76,-48 60,-19 127,-28 169,-42 25,-9 51,-17 76,-27 25,-10 54,-23 79,-42 57,-42 84,-109 50,-185 16,2 37,5 66,10 54,9 112,26 160,45 22,9 41,18 56,27 3,2 6,4 8,5 -1,6 -2,15 -5,22 -7,21 -87,168 -87,168 0,0 162,-15 182,-16 21,0 49,1 78,6 41,7 81,15 115,21 34,5 77,11 116,2 48,-11 90,-44 102,-102 6,-29 4,-61 -2,-95 31,6 71,19 113,39 132,63 182,141 162,196 -16,43 -75,86 -78,87 l -93,62 c 0,0 94,70 97,72 4,4 11,9 18,16 15,15 36,39 53,73 56,105 174,68 222,41 50,-29 104,-84 119,-155 62,65 121,173 128,251 6,69 -11,147 -43,171 -11,8 -72,18 -82,19 l -113,13 c 0,0 60,116 65,136 7,25 14,64 13,116 -5,133 121,155 189,144 52,-9 110,-36 154,-81 5,10 10,21 15,34 36,87 55,201 31,284 -14,48 -83,113 -105,118 -6,1 -15,2 -28,1 -14,-1 -29,-3 -41,-4 -20,-2 -37,-4 -49,-3 -72,4 -92,47 -86,97 3,21 4,35 3,51 0,18 -2,39 -4,71 -18,243 188,243 322,171 6,34 9,77 7,125 -2,67 -14,132 -36,180 -22,48 -47,67 -71,71 -56,9 -80,-1 -87,-5 -105,-53 -133,-17 -145,45 -2,10 -4,20 -8,33 -4,13 -10,29 -21,52 -58,123 -4,218 104,240 51,10 110,3 163,-12 -1,32 -6,73 -17,116 -34,127 -101,203 -190,195 -1,0 -4,-1 -11,-4 -10,-5 -19,-12 -28,-18 -15,-10 -29,-20 -44,-27 -18,-9 -42,-18 -71,-18 -27,0 -71,15 -91,76 -7,21 -11,47 -13,73 -5,51 -4,120 6,189 9,67 27,140 60,199 33,59 90,118 179,118 8,0 15,0 20,1 z"
       style="fill:#ed3237;fill-rule:nonzero"
       id="path6"
       inkscape:connector-curvature="0" /><path
       d="M 8015,9952 V 8875 h 719 c 183,1 331,150 331,334 0,140 -86,259 -207,309 l 324,434 h -308 l -308,-410 h -295 v 410 z m 795,-743 c 0,-56 -45,-102 -102,-103 h -436 v 205 h 436 c 56,-1 102,-46 102,-102 z m 180,-1667 v 231 h -718 v 180 h 692 v 231 h -692 v 205 h 718 v 231 H 8015 V 7543 h 975 z M 6379,6751 c 61,59 99,142 99,234 0,180 -146,327 -327,327 H 5401 V 6235 h 738 c 173,0 314,141 314,314 0,77 -28,147 -73,202 z m -721,330 h 462 c 57,0 102,-46 102,-103 0,-57 -46,-103 -102,-103 h -462 z m 0,-436 h 449 c 50,0 90,-40 90,-90 0,-49 -40,-90 -90,-90 h -449 z m 1627,-136 -189,391 h 378 z m 663,801 h -275 l -87,-180 h -603 l -87,180 h -275 l 539,-1077 h 250 l 539,1077 z m 3344,-846 h -373 v 205 h 373 c 56,0 102,-46 102,-103 0,-56 -46,-102 -102,-103 z m -180,436 h -192 v 410 h -256 V 6233 h 655 c 184,1 332,150 332,334 0,152 -100,280 -239,320 l 316,423 h -308 z m -808,-667 v 231 h -718 v 180 h 692 v 231 h -692 v 205 h 718 v 231 H 9329 V 6234 h 975 z m -1436,0 h 309 l -546,701 v 376 h -257 v -376 l -546,-701 h 309 l 366,490 366,-490 z m -366,-1032 -189,391 h 378 z m 663,801 h -275 l -87,-180 h -603 l -87,180 h -275 l 539,-1077 h 250 l 539,1077 z M 8992,4158 c 61,59 99,142 99,234 0,180 -146,327 -327,327 H 8014 V 3642 h 738 c 173,0 314,141 314,314 0,77 -28,147 -73,202 z m -721,330 h 462 c 57,0 102,-46 102,-103 0,-57 -46,-103 -102,-103 h -462 z m 0,-436 h 449 c 50,0 90,-40 90,-90 0,-49 -40,-90 -90,-90 h -449 z m 3528,6937 389,-76 c -12,-64 -69,-190 -222,-161 -138,27 -172,154 -166,236 z m 663,62 -626,120 c 34,130 174,170 318,142 106,-21 184,-51 258,-93 l 72,172 c -85,56 -195,101 -328,126 -313,61 -532,-86 -586,-366 -44,-226 52,-514 376,-577 314,-61 466,168 506,371 8,44 11,84 10,106 z m -1618,805 -4,-200 c 62,17 182,23 267,-2 95,-27 125,-73 111,-123 -15,-53 -55,-68 -175,-70 -204,-2 -309,-80 -339,-188 -47,-163 58,-328 281,-392 107,-31 209,-33 272,-19 l 4,192 c -46,-10 -137,-18 -219,5 -75,21 -109,65 -95,115 14,50 63,62 189,65 189,4 288,66 328,201 46,160 -46,321 -305,396 -120,34 -232,37 -315,20 z m -419,-751 121,621 c 23,116 44,210 63,283 l -231,45 -39,-137 -6,1 c -25,67 -94,185 -270,219 -177,34 -353,-40 -410,-335 l -103,-527 266,-52 94,482 c 28,144 94,222 210,199 90,-17 134,-90 146,-149 4,-19 3,-41 -1,-64 l -104,-535 266,-52 z m -1693,-199 29,819 h 4 c 21,-36 46,-76 70,-110 l 208,-294 329,-12 -344,385 430,535 -337,12 -275,-383 -78,97 10,297 -270,9 -47,-1347 270,-9 z m -1125,1324 56,-613 c 12,-138 18,-226 19,-306 l 232,20 -6,180 7,1 c 60,-135 182,-187 280,-178 25,2 39,4 60,11 l -22,251 c -24,-7 -47,-12 -79,-15 -117,-10 -197,49 -225,143 -5,19 -8,40 -10,61 l -41,469 -269,-24 z m -856,-737 389,76 c 13,-64 7,-202 -146,-232 -138,-27 -217,79 -243,157 z m 592,306 -625,-123 c -17,133 97,223 242,251 106,21 189,22 274,10 l 3,186 c -99,20 -218,20 -351,-6 -313,-61 -461,-279 -406,-559 44,-226 240,-457 565,-394 314,61 370,330 330,533 -8,44 -21,82 -30,102 z m -1774,-1066 276,101 -16,472 c -2,84 -10,157 -19,230 l 6,2 c 41,-63 82,-122 132,-188 l 286,-374 270,98 -661,741 -255,-93 z m -868,144 386,89 c 15,-63 14,-202 -138,-237 -137,-32 -220,71 -248,148 z m 581,326 -621,-145 c -22,133 90,226 233,259 105,24 189,29 273,20 l -4,186 c -100,16 -219,13 -351,-18 -311,-72 -451,-295 -386,-573 52,-224 256,-448 578,-374 312,72 358,343 311,544 -10,43 -24,81 -33,101 z m -1840,194 -44,-1272 270,-9 37,1046 550,-19 8,226 -821,29 z m 9235,-14 v -634 c 0,-113 -3,-208 -8,-289 h 235 l 13,138 h 6 c 37,-63 137,-159 303,-159 178,0 347,113 347,408 v 537 h -271 v -502 c 0,-133 -50,-225 -171,-225 -93,0 -151,65 -173,126 -7,18 -10,46 -10,70 v 531 h -271 z m 86,-9914 c -37,0 -67,20 -94,41 67,22 140,45 171,52 -21,-51 -69,-93 -77,-93 z m -244,80 c 0,0 102,-165 254,-165 62,0 212,178 141,243 -59,54 -395,-78 -395,-78 z m -8031,0 c 0,0 -335,132 -395,78 -71,-65 79,-243 141,-243 152,0 254,165 254,165 z m -244,-80 c -8,0 -56,42 -77,93 30,-7 104,-30 171,-52 -27,-21 -57,-41 -94,-41 z m 2911,1215 -255,-834 -3,1 -168,155 -90,-158 233,-210 187,-57 317,1036 -220,67 z m 386,-105 -26,-183 c 32,0 62,-6 114,-16 84,-17 165,-53 220,-107 68,-62 105,-143 112,-233 l -4,-1 c -45,64 -119,106 -224,121 -193,27 -365,-82 -394,-287 -30,-212 120,-412 360,-446 278,-39 444,150 480,406 31,224 -18,396 -122,519 -92,108 -229,179 -395,208 -45,10 -92,16 -121,18 z m 174,-976 c -100,14 -159,109 -143,224 14,98 86,172 199,156 81,-11 133,-56 155,-105 6,-15 8,-31 5,-54 -16,-122 -82,-239 -216,-221 z m 1002,890 c -277,-14 -401,-259 -386,-580 17,-325 174,-555 452,-540 285,15 401,263 385,576 -17,330 -165,559 -451,544 z m 10,-176 c 117,6 188,-125 201,-377 13,-247 -41,-384 -159,-390 -108,-6 -187,121 -200,371 -15,255 50,390 158,395 z m 1181,371 -219,-59 69,-257 -491,-131 40,-148 595,-528 287,77 -166,618 134,36 -46,171 -134,-36 z m -376,-560 271,73 70,-260 c 17,-62 36,-124 57,-189 l -6,-2 c -53,59 -98,110 -150,163 l -241,212 -2,3 z M 6362,1083 c 666,-251 1387,-389 2141,-389 754,0 1475,137 2141,389 77,-82 228,-106 329,-60 16,-134 385,-111 457,-4 34,-56 296,-83 473,343 65,-18 128,-31 186,-38 38,-4 170,-14 201,-19 88,-14 124,-127 228,-168 18,-7 68,-17 137,-26 -14,-52 -35,-140 -24,-176 32,-108 213,-114 295,-143 96,-33 210,-66 150,-163 -112,-183 392,-50 441,32 28,46 -23,138 -23,138 0,0 65,-6 133,5 165,27 294,80 227,-132 -44,-138 529,49 439,297 -26,71 -108,126 -108,126 0,0 57,37 101,121 40,76 197,-12 197,-115 0,-211 263,79 282,282 7,71 -6,189 -73,241 -33,25 -121,35 -121,35 0,0 39,67 34,190 -4,107 184,76 238,-40 45,-96 209,226 148,439 -20,68 -106,160 -163,173 -62,14 -147,-19 -144,5 6,50 4,70 0,137 -11,151 139,172 255,62 88,-84 144,516 -98,557 -143,24 -162,-49 -168,-22 -5,25 -8,47 -34,103 -76,161 127,151 229,95 92,-50 55,514 -248,488 -58,-5 -99,-67 -148,-67 -47,0 -53,497 141,497 283,0 -29,318 -296,301 33,366 253,863 473,1116 241,278 377,589 363,879 418,43 694,-152 791,-418 152,-415 -144,-874 -373,-1221 -311,-470 -257,-1000 -189,-1323 -114,-77 -170,-204 -170,-341 0,-143 32,-310 182,-451 377,-354 953,-52 1044,86 30,45 17,109 -49,144 -258,137 -103,643 -593,643 -28,98 -42,200 -46,302 -12,311 65,519 179,706 82,135 256,384 363,615 300,648 104,1469 -653,1709 -125,40 -394,76 -676,26 -17,21 -36,41 -56,61 -24,24 -53,50 -83,77 -57,176 -47,383 139,598 318,368 468,462 89,734 -732,526 -786,922 -886,1079 155,22 313,52 475,91 78,19 238,62 185,297 l -412,1852 c -61,274 -265,207 -363,181 -1781,-471 -2640,802 -5551,802 -2911,0 -3770,-1274 -5551,-802 -98,26 -302,93 -363,-181 L 2174,9986 c -52,-235 107,-278 185,-297 162,-38 321,-68 475,-91 -100,-157 -154,-554 -886,-1079 -379,-272 -230,-366 89,-734 186,-215 196,-422 139,-598 -31,-27 -59,-53 -84,-77 -20,-20 -39,-40 -56,-61 -282,50 -550,14 -676,-26 C 603,6783 407,5961 707,5314 c 107,-231 281,-480 363,-615 114,-187 190,-395 179,-706 -4,-102 -18,-204 -46,-302 -489,0 -335,-506 -593,-643 -66,-35 -79,-99 -49,-144 92,-138 667,-440 1044,-86 151,141 182,308 182,451 0,137 -56,264 -170,341 68,323 123,853 -189,1323 -230,347 -525,807 -374,1221 97,266 373,461 791,418 -14,-289 122,-600 363,-879 220,-253 440,-750 473,-1116 -267,17 -578,-301 -296,-301 194,0 188,-497 141,-497 -49,0 -90,62 -147,67 -304,26 -341,-538 -249,-488 103,56 305,66 229,-95 -26,-55 -29,-78 -34,-103 -6,-27 -25,46 -168,22 -241,-41 -185,-641 -98,-557 115,111 266,90 255,-62 -5,-68 -7,-87 0,-137 3,-24 -82,9 -144,-5 -57,-13 -143,-105 -163,-173 -62,-213 102,-536 148,-439 54,116 242,146 238,40 -5,-123 34,-190 34,-190 0,0 -88,-10 -121,-35 -67,-52 -80,-170 -73,-241 19,-203 282,-493 282,-282 0,103 157,191 197,115 44,-83 101,-121 101,-121 0,0 -82,-55 -108,-126 -90,-248 483,-435 439,-297 -67,212 62,159 227,132 68,-11 133,-5 133,-5 0,0 -51,-91 -23,-138 50,-82 554,-215 441,-32 -60,97 54,130 150,163 83,28 264,34 295,143 11,36 -10,124 -24,176 69,9 119,19 137,26 104,41 140,154 228,168 32,5 163,15 201,19 58,7 121,20 186,38 177,-426 439,-398 473,-343 72,-107 441,-130 457,4 101,-46 252,-22 329,60 z m 4271,249 C 9974,1073 9255,931 8503,931 c -752,0 -1470,142 -2130,401 -82,152 -194,164 -194,267 223,80 351,289 110,461 l 136,427 c 300,10 323,214 287,379 106,64 169,268 121,413 505,-243 1072,-379 1670,-379 598,0 1164,136 1670,379 -48,-145 16,-349 121,-413 -36,-164 -13,-369 287,-379 l 136,-427 c -242,-172 -114,-380 110,-461 0,-103 -112,-114 -194,-267 z m -4448,1178 -98,-306 c -126,88 -225,134 -366,63 -176,153 -260,329 -303,519 35,-18 69,-34 103,-49 279,-122 496,-193 664,-227 z m 4734,-306 -98,306 c 168,34 385,105 664,227 34,15 68,31 103,49 -42,-191 -126,-366 -303,-519 -141,72 -240,26 -366,-63 z M 5003,6757 c 0,1933 1567,3501 3501,3501 1933,0 3501,-1567 3501,-3501 0,-1933 -1567,-3501 -3501,-3501 -1933,0 -3501,1567 -3501,3501 z m 7359,0 c 0,1442 -791,2700 -1964,3362 676,-166 1320,-370 2000,-486 -318,-80 -265,-518 -126,-696 40,-52 171,-210 438,-210 139,0 821,-452 821,-634 0,-164 -906,-357 -906,-984 0,-238 77,-669 748,-669 0,-399 -411,-818 -630,-984 -109,-83 -223,-214 -303,-386 -503,-190 -847,-1123 -1142,-1431 -116,1 -254,-42 -363,-84 -53,37 -115,61 -178,72 971,701 1603,1842 1603,3131 z M 6609,10119 C 5437,9457 4645,8199 4645,6757 c 0,-1289 632,-2430 1603,-3131 -63,-11 -125,-35 -178,-72 -109,43 -247,86 -363,84 -296,308 -640,1242 -1142,1431 -79,172 -193,302 -303,386 -219,167 -630,586 -630,984 671,0 748,431 748,669 0,627 -906,820 -906,984 0,181 682,634 821,634 267,0 398,159 438,210 139,178 193,616 -126,696 680,116 1324,320 2000,486 z m 1895,2465 c 708,0 1291,-77 1795,-186 509,-110 938,-253 1331,-380 776,-251 1473,-468 2389,-252 163,41 164,40 191,-81 l 370,-1665 c 22,-99 22,-99 -101,-127 -1084,-233 -1978,-73 -2888,159 -480,122 -956,262 -1455,372 -512,112 -1047,193 -1632,193 -585,0 -1120,-80 -1632,-193 -499,-109 -975,-249 -1455,-372 -910,-232 -1804,-391 -2888,-159 -123,27 -123,28 -101,127 l 370,1665 c 27,121 27,122 191,81 915,-216 1613,1 2389,252 394,128 822,270 1331,380 504,109 1087,186 1795,186 z m 7539,-9218 c 28,-74 50,-153 80,-222 30,-68 75,-144 152,-200 -137,-103 -527,-251 -775,-19 -110,103 -135,223 -135,342 0,168 95,206 187,255 -96,418 -130,908 147,1326 114,172 254,386 344,613 90,227 139,487 45,743 -126,344 -475,565 -952,515 -16,66 -40,131 -74,193 230,29 441,-1 536,-32 646,-205 837,-912 562,-1504 -51,-110 -118,-225 -182,-327 -68,-108 -132,-205 -173,-273 -127,-209 -213,-446 -200,-789 4,-112 31,-291 81,-441 266,10 302,-35 358,-179 z m -3215,1496 c -138,-24 -251,-111 -233,-206 9,-44 164,45 196,-346 11,-131 -12,-235 -18,-236 -213,-35 -135,253 -324,322 -269,98 -435,-161 -433,-347 154,8 175,-106 125,-201 -21,-40 -32,-115 -32,-115 0,0 -64,51 -147,38 -221,-32 -250,-634 -107,-517 88,72 180,32 239,-38 -266,-102 -544,-270 -676,-329 -586,-258 -833,-257 -924,-222 -31,12 -59,47 -46,122 72,-32 183,-26 183,-26 105,8 93,165 -11,157 -252,2 -309,168 -299,262 5,49 12,91 91,84 72,-146 182,-191 182,-191 95,-45 163,97 68,142 -45,24 -119,87 -108,170 5,38 25,69 77,77 65,10 150,-3 212,-46 l 72,-50 c 0,0 276,126 454,104 l 50,52 c 97,101 192,252 283,403 91,152 188,322 294,481 221,333 424,529 626,529 92,0 158,-29 205,-76 z m -168,241 c 60,95 130,169 197,219 218,166 692,627 695,1111 258,25 360,100 360,100 90,64 3,185 -96,135 -184,-94 -473,-66 -558,-58 -396,36 -455,303 -455,497 0,223 158,385 378,527 111,72 223,130 306,180 44,26 91,56 128,90 31,27 94,91 94,187 0,318 -810,799 -987,799 -190,0 -279,109 -308,147 -48,61 -87,192 -71,301 11,69 43,128 133,137 -2,-130 43,-275 118,-373 67,-88 198,12 132,100 -52,68 -94,180 -79,335 104,61 226,66 378,13 -17,-129 42,-293 113,-395 63,-91 199,3 136,94 -52,75 -88,175 -85,263 134,110 323,43 345,-1 33,-66 65,-137 104,-214 42,-84 93,-175 163,-274 141,-200 353,-424 711,-675 86,-60 153,-99 54,-206 -42,-46 -87,-100 -140,-156 -218,-237 -122,-480 6,-640 62,-78 138,-148 204,-206 63,-55 124,-105 169,-150 303,-303 253,-755 -126,-1192 -222,-256 -507,-841 -517,-1285 -161,-140 -150,-481 -241,-481 -128,0 -5,238 9,363 49,439 -397,472 -527,320 -76,-89 126,20 35,-399 -14,-67 -48,-203 -77,-203 -179,0 -78,227 -95,403 -19,187 -112,288 -223,330 -57,140 -171,247 -382,258 z m 1980,2251 c -158,155 -275,336 -103,523 222,240 377,387 59,610 -579,407 -744,722 -861,968 25,10 55,21 93,30 74,18 135,23 193,28 31,3 50,-83 125,-232 113,-225 321,-531 818,-891 184,-134 177,-156 83,-275 -51,-64 -120,-138 -198,-228 -156,-180 -212,-363 -208,-533 z M 11996,2472 c 12,29 35,78 58,83 72,16 289,32 499,41 105,4 378,7 421,-11 71,-28 216,-210 331,-228 157,-25 273,-85 320,-195 34,-79 34,-112 19,-152 -65,-180 -103,-391 -103,-391 0,0 177,-112 175,-183 -2,-41 -24,-45 -84,-57 -51,-11 -173,-10 -229,-10 0,0 -26,-94 -128,-117 -77,-17 -411,-48 -705,17 -39,9 -113,108 -136,125 -30,23 -70,42 -121,50 -33,5 -168,15 -207,20 -110,13 -252,57 -390,108 0,156 92,245 92,245 0,0 -5,160 7,231 1,13 21,16 29,15 59,-10 107,-8 137,-5 122,15 529,13 529,13 v 400 h -514 z m 438,260 c -107,87 -116,209 -122,307 -8,140 -64,216 -91,251 -50,66 -184,206 -295,144 -52,-29 0,183 50,199 66,22 198,-77 220,-102 19,94 45,179 75,240 66,135 60,337 -80,389 30,84 158,138 221,86 31,-25 52,-109 76,-157 95,-191 253,-186 408,-139 15,5 64,188 45,372 -22,222 -69,341 -144,375 -66,30 320,108 320,-196 0,-35 -11,-215 -12,-258 -1,-102 33,-279 255,-279 43,0 108,22 154,101 30,51 62,183 70,220 35,162 41,316 -2,363 -30,32 253,23 199,-235 -5,-24 -46,-173 -55,-213 -8,-38 -20,-103 -4,-165 24,-92 102,-151 199,-151 67,0 147,35 193,152 16,40 73,332 150,377 95,56 288,-32 215,-51 -40,-10 -83,-56 -105,-97 -39,-70 -54,-143 -65,-216 -18,-117 -9,-231 8,-284 33,-104 82,-132 161,-132 50,0 102,47 141,63 109,43 177,-193 125,-170 -75,33 -288,-24 -260,-243 12,-93 54,-114 85,-307 5,-33 120,80 243,68 66,-7 99,-246 63,-227 -140,74 -344,-12 -331,-200 12,-174 8,-276 3,-340 -2,-23 66,2 186,5 79,2 107,-24 126,-73 20,-50 -2,-217 -24,-194 -81,81 -210,59 -266,24 -78,-49 -111,-87 -111,-189 0,-107 -10,-167 -75,-293 160,-10 195,-6 228,-54 62,-92 -43,-276 -52,-227 -16,82 -167,125 -223,123 -192,-8 -136,-166 -360,-296 128,-84 180,-147 184,-183 5,-46 -152,-158 -147,-117 8,66 -56,158 -172,171 -97,11 -180,-25 -318,-32 -97,-5 -254,8 -254,8 0,0 114,-170 92,-211 -13,-25 -146,-70 -130,-25 15,40 -29,119 -105,163 -88,51 -160,71 -286,97 -59,12 -59,23 -48,61 6,20 13,45 19,66 271,-20 635,-11 671,132 129,0 265,22 308,59 101,87 110,236 -91,391 55,283 151,326 58,540 -78,180 -260,247 -423,278 -70,14 -151,139 -293,216 -68,37 -352,34 -605,20 z m -669,146 c 119,63 249,130 393,185 8,-83 16,-228 87,-344 -98,-8 -177,-17 -216,-24 -146,-26 -236,-310 -179,-365 h 518 v -118 c -90,-1 -276,2 -404,-13 -37,-4 -102,4 -138,10 -169,26 -159,-191 -159,-343 -82,-104 -109,-252 -82,-395 54,-21 111,-43 169,-63 -76,-176 -170,-272 -246,-268 23,51 33,100 33,100 20,108 -143,138 -163,30 -8,-42 -38,-115 -75,-162 -42,-31 -178,-42 -182,-8 60,65 102,161 102,161 42,102 -111,165 -153,63 -21,-49 -74,-150 -142,-169 0,0 -151,-24 -170,49 -16,60 94,149 104,158 57,51 123,112 123,254 v 90 l -114,43 c -129,44 -177,105 -58,185 61,41 116,82 165,118 47,34 82,58 112,73 46,23 73,27 124,1 l 95,-48 80,70 c 249,216 339,472 376,731 z m -6522,0 c 37,-259 127,-515 376,-731 l 80,-70 95,48 c 51,26 78,23 124,-1 30,-15 65,-39 112,-73 49,-35 104,-76 165,-118 119,-80 71,-141 -58,-185 l -114,-43 v -90 c 0,-143 65,-204 123,-254 11,-9 120,-98 104,-158 -20,-73 -170,-49 -170,-49 -68,19 -122,120 -142,169 -42,102 -195,39 -153,-63 0,0 42,-97 102,-161 -3,-35 -140,-23 -182,8 -37,47 -67,120 -75,162 -20,109 -183,79 -163,-30 0,0 10,-48 33,-100 -75,-4 -170,92 -246,268 58,20 115,41 169,63 27,143 0,290 -82,395 0,152 10,369 -159,343 -37,-6 -101,-14 -138,-10 -127,15 -314,12 -404,13 v 118 h 518 c 56,55 -34,340 -179,365 -39,7 -119,16 -216,24 72,116 79,261 87,344 144,-55 274,-121 393,-185 z m -669,-146 c -253,14 -536,17 -605,-20 -142,-77 -223,-202 -293,-216 -163,-32 -346,-98 -423,-278 -93,-214 3,-257 58,-540 -201,-155 -192,-303 -91,-391 43,-37 179,-59 308,-59 36,-144 400,-153 671,-132 6,-21 13,-47 19,-66 11,-38 11,-48 -48,-61 -127,-26 -199,-46 -286,-97 -76,-44 -120,-123 -105,-163 17,-44 -117,1 -130,25 -22,42 92,211 92,211 0,0 -158,-13 -254,-8 -138,7 -221,43 -318,32 -116,-13 -181,-104 -172,-171 5,-40 -152,71 -147,117 4,36 55,99 184,183 -223,130 -167,288 -360,296 -57,2 -207,-41 -223,-123 -10,-49 -115,134 -52,227 33,48 68,43 227,54 -64,127 -75,187 -75,293 0,102 -33,141 -111,189 -56,35 -184,57 -266,-24 -23,-22 -44,144 -24,194 19,49 47,75 126,73 120,-4 188,-28 186,-5 -5,65 -9,167 3,340 13,189 -191,274 -331,200 -36,-19 -3,220 63,227 123,12 238,-101 243,-68 31,194 73,214 85,307 28,219 -185,276 -260,243 -52,-23 16,214 125,170 38,-15 90,-63 141,-63 80,0 129,28 161,132 17,53 26,167 8,284 -11,74 -26,147 -65,216 -23,41 -66,87 -105,97 -74,19 120,106 215,51 77,-45 134,-337 150,-377 47,-117 126,-152 193,-152 98,0 176,59 200,151 16,62 4,127 -4,165 -9,41 -50,189 -55,213 -54,258 230,267 199,235 -44,-47 -38,-200 -2,-363 8,-37 40,-169 70,-220 46,-79 111,-101 154,-101 222,0 256,178 255,279 0,43 -12,223 -12,258 0,304 385,226 320,196 -75,-34 -122,-153 -144,-375 -18,-184 30,-367 45,-372 155,-47 312,-51 408,139 24,48 45,131 76,157 63,52 192,-2 221,-86 -140,-53 -146,-255 -80,-389 30,-61 56,-146 75,-240 22,24 154,124 220,102 49,-16 101,-228 50,-199 -111,62 -245,-78 -295,-144 -27,-35 -83,-111 -91,-251 -6,-98 -15,-220 -122,-307 z m 438,-260 h -514 v -400 c 0,0 406,2 529,-13 30,-4 79,-5 137,5 8,1 28,-3 29,-15 12,-71 7,-231 7,-231 0,0 92,-89 92,-245 -138,-52 -279,-95 -390,-108 -39,-5 -174,-15 -207,-20 -52,-8 -91,-27 -121,-50 -23,-18 -98,-117 -136,-125 -294,-65 -628,-34 -705,-17 -101,23 -128,117 -128,117 -56,0 -178,-1 -229,10 -60,13 -82,16 -84,57 -3,71 175,183 175,183 0,0 -38,211 -103,391 -14,39 -15,72 19,152 48,110 164,171 320,195 115,18 260,200 331,228 43,17 316,15 421,11 211,-8 427,-24 499,-41 23,-5 46,-55 58,-83 z M 2368,7354 c 4,170 -52,352 -208,533 -78,91 -147,164 -199,228 -94,119 -101,141 83,275 497,361 705,666 817,891 75,149 94,235 125,232 58,-5 119,-11 193,-28 38,-9 68,-19 93,-30 -117,-246 -281,-561 -861,-968 -318,-223 -163,-370 59,-610 173,-187 55,-368 -103,-523 z M 4348,5103 c -211,-11 -324,-118 -382,-258 -112,-42 -205,-142 -223,-330 -17,-175 84,-403 -95,-403 -29,0 -63,136 -77,203 -91,420 112,310 35,399 -130,151 -576,119 -527,-320 14,-125 137,-363 9,-363 -91,0 -80,341 -241,481 -11,445 -295,1029 -517,1285 -379,437 -429,889 -126,1192 45,45 106,95 169,150 66,59 143,129 204,206 128,160 224,404 6,640 -53,57 -98,111 -140,156 -98,108 -31,146 54,206 359,251 570,474 711,675 70,99 120,190 163,274 39,78 70,149 104,214 22,43 211,111 345,1 3,-88 -33,-188 -85,-263 -63,-91 73,-185 136,-94 71,102 129,266 113,395 152,53 273,47 378,-13 15,-155 -27,-267 -79,-335 -67,-88 65,-188 132,-100 74,98 120,243 118,373 90,-9 123,-69 133,-137 17,-109 -23,-240 -71,-301 -30,-38 -118,-147 -308,-147 -177,0 -987,-481 -987,-799 0,-96 63,-159 94,-187 37,-33 84,-64 128,-90 84,-50 195,-108 306,-180 219,-143 378,-305 378,-527 0,-194 -58,-461 -455,-497 -85,-8 -374,-36 -558,58 -98,50 -186,-71 -96,-135 0,0 103,-75 360,-100 3,-485 477,-945 695,-1111 66,-50 137,-124 197,-219 z m -168,-241 c 46,47 112,76 205,76 202,0 405,-196 626,-529 106,-160 203,-330 294,-481 91,-151 186,-302 284,-403 l 50,-52 c 178,22 454,-104 454,-104 l 72,50 c 62,43 146,56 212,46 53,-8 72,-39 77,-77 11,-83 -63,-146 -108,-170 -95,-45 -27,-187 68,-142 0,0 110,45 182,191 79,7 86,-35 91,-84 10,-94 -47,-261 -299,-262 -105,8 -116,-150 -11,-157 0,0 111,-6 183,26 13,-75 -15,-110 -46,-122 -91,-35 -339,-37 -924,222 -132,58 -410,227 -676,329 59,70 151,110 239,38 142,-118 114,485 -107,517 -83,12 -147,-38 -147,-38 0,0 -11,75 -32,115 -49,95 -29,210 125,201 2,186 -164,446 -433,347 -189,-69 -111,-357 -324,-322 -6,1 -28,105 -18,236 32,391 187,302 196,346 19,96 -94,182 -233,206 z M 965,3366 c 56,144 92,189 358,179 50,150 77,329 81,441 13,344 -73,580 -200,789 -41,68 -105,164 -173,273 -64,103 -131,217 -182,327 -275,592 -84,1299 562,1504 96,30 307,61 536,32 -34,-62 -58,-126 -74,-193 -477,50 -826,-171 -952,-515 -94,-256 -45,-516 45,-743 90,-227 230,-440 344,-613 277,-419 243,-908 147,-1326 92,-49 188,-87 187,-255 0,-119 -25,-239 -135,-342 -248,-232 -638,-85 -775,19 77,56 122,133 152,200 30,69 52,147 80,222 z"
       style="fill:#333436;fill-rule:nonzero"
       id="path8"
       inkscape:connector-curvature="0" /></g></svg>